<svg xmlns="http://www.w3.org/2000/svg" version="1.1" width="1500" height="1500" viewBox="0 0 1500 1500">

    <g transform="matrix(0.6666666666666666,0,0,0.6666666666666666,249.39393939393938,438.5856950067477)">
        <svg viewBox="0 0 396 247" data-background-color="#ffffff" preserveAspectRatio="xMidYMid meet" height="935"
             width="1500" xmlns="http://www.w3.org/2000/svg">
            <g id="tight-bounds" transform="matrix(1,0,0,1,0.2400000000000091,-0.09999999999999432)">
                <svg viewBox="0 0 395.52 247.2" height="247.2" width="395.52">
                    <g>
                        <svg></svg>
                    </g>
                    <g>
                        <svg viewBox="0 0 395.52 247.2" height="247.2" width="395.52">
                            <g transform="matrix(1,0,0,1,75.54432,67.7721727613293)">
                                <svg viewBox="0 0 244.43135999999998 111.65565447734137" height="111.65565447734137"
                                     width="244.43135999999998">
                                    <g>
                                        <svg viewBox="0 0 244.43135999999998 111.65565447734137"
                                             height="111.65565447734137" width="244.43135999999998">
                                            <g>
                                                <svg viewBox="0 0 244.43135999999998 111.65565447734137"
                                                     height="111.65565447734137" width="244.43135999999998">
                                                    <g>
                                                        <svg viewBox="0 0 244.43135999999998 111.65565447734137"
                                                             height="111.65565447734137" width="244.43135999999998">
                                                            <g id="textblocktransform">
                                                                <svg viewBox="0 0 244.43135999999998 111.65565447734137"
                                                                     height="111.65565447734137"
                                                                     width="244.43135999999998" id="textblock">
                                                                    <g>
                                                                        <svg viewBox="0 0 244.43135999999998 111.65565447734137"
                                                                             height="111.65565447734137"
                                                                             width="244.43135999999998">
                                                                            <g transform="matrix(1,0,0,1,0,0)">
                                                                                <svg width="244.43135999999998"
                                                                                     viewBox="0.3 -37.5 82.74000000000001 37.8"
                                                                                     height="111.65565447734137"
                                                                                     data-palette-color="#1e55b3">
                                                                                    <path d="M6.65-34L6.65-34Q9.2-35.65 12.13-36.58 15.05-37.5 17.85-37.5L17.85-37.5Q18.2-37.5 18.63-37.48 19.05-37.45 19.85-37.4L19.85-37.4 11.9 0 4.7 0 11.95-33.95Q8.55-32.55 6.75-29.75 4.95-26.95 4.95-23.05L4.95-23.05Q4.95-22.1 5.08-21.4 5.2-20.7 5.5-20.05L5.5-20.05Q5.6-19.85 5.63-19.78 5.65-19.7 5.65-19.65L5.65-19.65Q2.85-19.65 1.58-20.83 0.3-22 0.3-24.5L0.3-24.5Q0.3-27 1.98-29.5 3.65-32 6.65-34ZM34.45-8.35L34.45-8.35Q34.45-7.75 34.4-7.3 34.35-6.85 34.25-6.45L34.25-6.45Q35.25-7.05 36.2-7.7 37.15-8.35 37.85-8.95L37.85-8.95 39.95-8.95Q38.4-7.15 36.52-5.63 34.65-4.1 32.3-2.7L32.3-2.7Q30.95-1.25 28.85-0.48 26.75 0.3 24.45 0.3L24.45 0.3Q21.1 0.3 19.12-1.53 17.15-3.35 17.15-6.1L17.15-6.1Q17.15-7.65 17.9-8.93 18.65-10.2 19.8-10.75L19.8-10.75Q21.5-13.8 22.97-17.28 24.45-20.75 25.95-25.55L25.95-25.55 33.35-26.55Q33.5-22.8 33.7-19.7 33.9-16.6 34.2-12.95L34.2-12.95Q34.35-10.85 34.4-10 34.45-9.15 34.45-8.35ZM26.25-20.15L26.25-20.15Q25.6-18.1 24.67-15.88 23.75-13.65 22.2-10.7L22.2-10.7Q22.75-10.45 23.05-10 23.35-9.55 23.35-8.95L23.35-8.95Q23.35-8 22.7-7.25 22.05-6.5 21.15-6.5L21.15-6.5Q20.65-6.5 20.3-6.68 19.95-6.85 19.8-7.15L19.8-7.15Q19.8-5.3 20.52-4.48 21.25-3.65 22.85-3.65L22.85-3.65Q24.9-3.65 26.05-4.85 27.2-6.05 27.2-8.3L27.2-8.3Q27.2-9 27.15-9.73 27.1-10.45 26.95-12.15L26.95-12.15Q26.7-14.5 26.55-16.3 26.4-18.1 26.25-20.15ZM50.95-8.35L50.95-8.35Q50.95-7.75 50.89-7.3 50.84-6.85 50.74-6.45L50.74-6.45Q51.74-7.05 52.69-7.7 53.64-8.35 54.34-8.95L54.34-8.95 56.45-8.95Q54.89-7.15 53.02-5.63 51.14-4.1 48.8-2.7L48.8-2.7Q47.45-1.25 45.34-0.48 43.24 0.3 40.95 0.3L40.95 0.3Q37.59 0.3 35.62-1.53 33.64-3.35 33.64-6.1L33.64-6.1Q33.64-7.65 34.39-8.93 35.14-10.2 36.29-10.75L36.29-10.75Q37.99-13.8 39.47-17.28 40.95-20.75 42.45-25.55L42.45-25.55 49.84-26.55Q49.99-22.8 50.2-19.7 50.39-16.6 50.7-12.95L50.7-12.95Q50.84-10.85 50.89-10 50.95-9.15 50.95-8.35ZM42.74-20.15L42.74-20.15Q42.09-18.1 41.17-15.88 40.24-13.65 38.7-10.7L38.7-10.7Q39.24-10.45 39.54-10 39.84-9.55 39.84-8.95L39.84-8.95Q39.84-8 39.2-7.25 38.54-6.5 37.64-6.5L37.64-6.5Q37.14-6.5 36.79-6.68 36.45-6.85 36.29-7.15L36.29-7.15Q36.29-5.3 37.02-4.48 37.74-3.65 39.34-3.65L39.34-3.65Q41.39-3.65 42.55-4.85 43.7-6.05 43.7-8.3L43.7-8.3Q43.7-9 43.64-9.73 43.59-10.45 43.45-12.15L43.45-12.15Q43.2-14.5 43.05-16.3 42.89-18.1 42.74-20.15ZM70.89-22.7L70.89-22.7 70.89-22.35 71.44-25 78.64-25 75.04-8Q74.94-7.55 74.89-7.18 74.84-6.8 74.84-6.4L74.84-6.4Q74.84-5.3 75.34-4.78 75.84-4.25 76.89-4.25L76.89-4.25Q78.19-4.25 79.24-5.48 80.29-6.7 80.94-8.95L80.94-8.95 83.04-8.95Q81.44-4.35 78.89-2.02 76.34 0.3 72.99 0.3L72.99 0.3Q70.84 0.3 69.57-0.9 68.29-2.1 68.09-4.3L68.09-4.3Q66.54-2 64.67-0.85 62.79 0.3 60.64 0.3L60.64 0.3Q57.54 0.3 55.77-1.8 53.99-3.9 53.99-7.75L53.99-7.75Q53.99-10.55 54.84-13.6 55.69-16.65 57.19-19.15L57.19-19.15Q59.04-22.1 61.49-23.68 63.94-25.25 66.84-25.25L66.84-25.25Q68.79-25.25 69.84-24.58 70.89-23.9 70.89-22.7ZM68.04-8.95L70.44-20.25Q70.44-21 69.89-21.58 69.34-22.15 68.39-22.15L68.39-22.15Q65.64-22.15 63.52-17.55 61.39-12.95 61.39-8.45L61.39-8.45Q61.39-6.5 61.94-5.53 62.49-4.55 63.89-4.55L63.89-4.55Q65.19-4.55 66.42-5.8 67.64-7.05 68.04-8.95L68.04-8.95Z"
                                                                                          opacity="1"
                                                                                          transform="matrix(1,0,0,1,0,0)"
                                                                                          fill="#1e55b3"
                                                                                          class="wordmark-text-0"
                                                                                          data-fill-palette-color="primary"
                                                                                          id="text-0"></path>
                                                                                </svg>
                                                                            </g>
                                                                        </svg>
                                                                    </g>
                                                                </svg>
                                                            </g>
                                                        </svg>
                                                    </g>
                                                </svg>
                                            </g>
                                        </svg>
                                    </g>
                                </svg>
                            </g>
                            <g>
                                <path d="M0 123.6c0-68.262 55.338-123.6 123.6-123.6 42.707 0 80.354 21.659 102.558 54.593l-6.132 0c-21.513-30.007-56.686-49.558-96.426-49.558-65.482 0-118.565 53.084-118.565 118.565 0 65.482 53.084 118.565 118.565 118.565 39.739 0 74.912-19.55 96.426-49.558l6.132 0c-22.203 32.933-59.851 54.593-102.558 54.593-68.262 0-123.6-55.338-123.6-123.6z"
                                      fill="#1e55b3" stroke="transparent" data-fill-palette-color="tertiary"></path>
                            </g>
                        </svg>
                    </g>
                    <defs></defs>
                </svg>
                <rect width="395.52" height="247.2" fill="none" stroke="none" visibility="hidden"></rect>
            </g>
        </svg>
    </g>
</svg>